<svg width="48" height="48" viewBox="0 0 48 48" fill="none" xmlns="http://www.w3.org/2000/svg">
<g id="icon_dribbble">
<g id="bg">
<circle cx="24" cy="24" r="21" fill="url(#paint0_linear_201_421)"/>
<circle cx="24" cy="24" r="21" fill="#FF4B0A"/>
</g>
<path id="dribbble" fill-rule="evenodd" clip-rule="evenodd" d="M37.1613 24C37.1613 31.2688 31.2688 37.1613 24 37.1613C16.7312 37.1613 10.8387 31.2688 10.8387 24C10.8387 16.7313 16.7312 10.8387 24 10.8387C31.2688 10.8387 37.1613 16.7313 37.1613 24ZM28.629 34.2907C27.2166 34.9271 25.6497 35.2811 24 35.2811C21.2766 35.2811 18.7786 34.3161 16.8294 32.7094C18.8572 29.3066 22.1187 26.7266 25.9958 25.5851C27.1094 28.3791 27.9948 31.2886 28.629 34.2907ZM30.3444 33.3294C29.7196 30.5197 28.8819 27.7903 27.8492 25.1589C28.7089 25.015 29.592 24.9401 30.4925 24.9401C32.1192 24.9401 33.6874 25.1842 35.1632 25.6372C34.6989 28.8304 32.8971 31.5901 30.3444 33.3294ZM35.2775 23.7117C33.7542 23.2869 32.1492 23.0599 30.4925 23.0599C29.3376 23.0599 28.2085 23.1701 27.1151 23.3805C26.8299 22.7223 26.5323 22.0707 26.2227 21.426C28.6839 20.3336 30.9585 18.897 32.9851 17.1777C34.3717 19.001 35.216 21.2592 35.2775 23.7117ZM31.7263 15.78C29.8236 17.3873 27.6887 18.7276 25.3789 19.7434C24.1596 17.4117 22.7795 15.1776 21.2534 13.0556C22.1326 12.8357 23.0527 12.7189 24 12.7189C26.9896 12.7189 29.7076 13.8818 31.7263 15.78ZM19.3959 13.6981C16.0842 15.1805 13.6177 18.2128 12.9192 21.8724C13.561 21.9196 14.2094 21.9436 14.8635 21.9436C17.9356 21.9436 20.8837 21.414 23.6215 20.441C22.378 18.0842 20.964 15.8311 19.3959 13.6981ZM12.7218 23.7431C12.7199 23.8285 12.7189 23.9142 12.7189 24C12.7189 26.8128 13.7483 29.3852 15.451 31.3609C17.6939 27.8068 21.1628 25.1019 25.2647 23.8413C25.0114 23.2661 24.7483 22.6962 24.4757 22.1318C21.4775 23.2264 18.24 23.8238 14.8635 23.8238C14.1431 23.8238 13.4288 23.7966 12.7218 23.7431Z" fill="#EDF7FA" stroke="#EDF7FA" stroke-width="0.5"/>
</g>
<defs>
<linearGradient id="paint0_linear_201_421" x1="24" y1="3" x2="24" y2="44.8754" gradientUnits="userSpaceOnUse">
<stop stop-color="#18ACFE"/>
<stop offset="1" stop-color="#0163E0"/>
</linearGradient>
</defs>
</svg>
