<svg width="574" height="274" viewBox="0 0 574 274" fill="none" xmlns="http://www.w3.org/2000/svg">
<g id="NB_Designer_Logo">
<g id="Frame 7">
<g id="Frame 11">
<path id="Graphic Design" d="M15.8493 217.25C15.7595 216.975 15.6411 216.729 15.494 216.511C15.3497 216.29 15.1769 216.102 14.9754 215.947C14.7767 215.792 14.5507 215.674 14.2975 215.592C14.0443 215.51 13.7666 215.469 13.4644 215.469C12.9689 215.469 12.5183 215.597 12.1127 215.853C11.707 216.109 11.3844 216.486 11.1448 216.985C10.9052 217.483 10.7854 218.094 10.7854 218.818C10.7854 219.542 10.9066 220.154 11.1489 220.652C11.3912 221.15 11.7192 221.527 12.1331 221.783C12.5469 222.039 13.0125 222.167 13.5297 222.167C14.0089 222.167 14.4309 222.065 14.7957 221.861C15.1633 221.654 15.4491 221.362 15.6533 220.987C15.8602 220.608 15.9637 220.163 15.9637 219.651L16.2741 219.717H13.7584V218.818H16.9438V219.717C16.9438 220.405 16.7968 221.004 16.5027 221.513C16.2114 222.023 15.8085 222.417 15.2939 222.698C14.7821 222.975 14.194 223.114 13.5297 223.114C12.7892 223.114 12.1385 222.94 11.5777 222.592C11.0196 222.243 10.5839 221.748 10.2709 221.105C9.96048 220.463 9.8053 219.7 9.8053 218.818C9.8053 218.157 9.89378 217.562 10.0707 217.034C10.2504 216.503 10.5036 216.051 10.8303 215.678C11.157 215.305 11.5436 215.019 11.9901 214.82C12.4366 214.621 12.9281 214.522 13.4644 214.522C13.9054 214.522 14.3165 214.589 14.6977 214.722C15.0816 214.853 15.4233 215.039 15.7227 215.282C16.0249 215.521 16.2768 215.808 16.4782 216.143C16.6797 216.475 16.8186 216.844 16.8948 217.25H15.8493ZM20.7484 223V214.636H23.5744C24.2278 214.636 24.7641 214.748 25.1834 214.971C25.6027 215.192 25.913 215.495 26.1145 215.882C26.316 216.269 26.4167 216.708 26.4167 217.201C26.4167 217.694 26.316 218.131 26.1145 218.512C25.913 218.893 25.604 219.193 25.1875 219.41C24.7709 219.625 24.2387 219.733 23.5907 219.733H21.3038V218.818H23.5581C24.0045 218.818 24.3639 218.753 24.6362 218.622C24.9112 218.491 25.1099 218.306 25.2324 218.067C25.3576 217.824 25.4203 217.536 25.4203 217.201C25.4203 216.866 25.3576 216.573 25.2324 216.323C25.1072 216.073 24.9071 215.879 24.6321 215.743C24.3571 215.604 23.9937 215.535 23.5417 215.535H21.7612V223H20.7484ZM24.6852 219.243L26.7434 223H25.5673L23.5417 219.243H24.6852ZM30.5174 223H29.4556L32.5266 214.636H33.5721L36.6431 223H35.5813L33.082 215.96H33.0167L30.5174 223ZM30.9094 219.733H35.1893V220.631H30.9094V219.733ZM40.0158 223V214.636H42.8418C43.498 214.636 44.0343 214.755 44.4508 214.992C44.8701 215.226 45.1805 215.543 45.382 215.943C45.5834 216.343 45.6842 216.79 45.6842 217.283C45.6842 217.775 45.5834 218.223 45.382 218.626C45.1832 219.029 44.8756 219.35 44.459 219.59C44.0425 219.827 43.5088 219.945 42.8582 219.945H40.8326V219.047H42.8255C43.2747 219.047 43.6354 218.969 43.9077 218.814C44.18 218.659 44.3773 218.449 44.4999 218.185C44.6251 217.918 44.6877 217.618 44.6877 217.283C44.6877 216.948 44.6251 216.648 44.4999 216.384C44.3773 216.12 44.1786 215.913 43.9036 215.763C43.6286 215.611 43.2638 215.535 42.8092 215.535H41.0286V223H40.0158ZM49.3856 223V214.636H50.3984V218.361H54.8579V214.636H55.8707V223H54.8579V219.259H50.3984V223H49.3856ZM60.9811 214.636V223H59.9683V214.636H60.9811ZM71.8119 217.25H70.7991C70.7392 216.959 70.6344 216.703 70.4847 216.482C70.3376 216.262 70.158 216.077 69.9456 215.927C69.736 215.774 69.5032 215.66 69.2473 215.584C68.9914 215.508 68.7245 215.469 68.4468 215.469C67.9405 215.469 67.4817 215.597 67.0706 215.853C66.6622 216.109 66.3369 216.486 66.0946 216.985C65.855 217.483 65.7352 218.094 65.7352 218.818C65.7352 219.542 65.855 220.154 66.0946 220.652C66.3369 221.15 66.6622 221.527 67.0706 221.783C67.4817 222.039 67.9405 222.167 68.4468 222.167C68.7245 222.167 68.9914 222.129 69.2473 222.053C69.5032 221.976 69.736 221.863 69.9456 221.714C70.158 221.561 70.3376 221.375 70.4847 221.154C70.6344 220.931 70.7392 220.675 70.7991 220.386H71.8119C71.7357 220.814 71.5968 221.196 71.3954 221.534C71.1939 221.872 70.9434 222.159 70.6439 222.396C70.3445 222.63 70.0082 222.808 69.6352 222.931C69.265 223.053 68.8688 223.114 68.4468 223.114C67.7335 223.114 67.0992 222.94 66.5438 222.592C65.9884 222.243 65.5514 221.748 65.2329 221.105C64.9144 220.463 64.7551 219.7 64.7551 218.818C64.7551 217.936 64.9144 217.174 65.2329 216.531C65.5514 215.889 65.9884 215.393 66.5438 215.045C67.0992 214.696 67.7335 214.522 68.4468 214.522C68.8688 214.522 69.265 214.583 69.6352 214.706C70.0082 214.828 70.3445 215.008 70.6439 215.245C70.9434 215.479 71.1939 215.765 71.3954 216.102C71.5968 216.437 71.7357 216.82 71.8119 217.25ZM83.4038 223H80.8229V214.636H83.5182C84.3295 214.636 85.0237 214.804 85.6009 215.139C86.1781 215.471 86.6205 215.949 86.9281 216.572C87.2358 217.193 87.3896 217.936 87.3896 218.802C87.3896 219.673 87.2344 220.423 86.9241 221.052C86.6137 221.678 86.1618 222.16 85.5682 222.498C84.9747 222.833 84.2533 223 83.4038 223ZM81.8356 222.102H83.3385C84.03 222.102 84.6031 221.968 85.0578 221.701C85.5124 221.435 85.8514 221.055 86.0746 220.562C86.2979 220.069 86.4095 219.482 86.4095 218.802C86.4095 218.127 86.2992 217.545 86.0787 217.058C85.8582 216.568 85.5288 216.192 85.0904 215.931C84.6521 215.667 84.1062 215.535 83.4528 215.535H81.8356V222.102ZM91.1585 223V214.636H96.2061V215.535H92.1713V218.361H95.9447V219.259H92.1713V222.102H96.2714V223H91.1585ZM104.675 216.727C104.626 216.313 104.428 215.992 104.079 215.763C103.731 215.535 103.303 215.42 102.797 215.42C102.427 215.42 102.103 215.48 101.825 215.6C101.55 215.72 101.335 215.885 101.18 216.094C101.027 216.304 100.951 216.542 100.951 216.809C100.951 217.032 101.004 217.224 101.11 217.385C101.219 217.543 101.358 217.675 101.527 217.781C101.696 217.884 101.873 217.97 102.058 218.038C102.243 218.104 102.413 218.157 102.568 218.197L103.418 218.426C103.635 218.483 103.878 218.562 104.144 218.663C104.414 218.764 104.671 218.901 104.916 219.075C105.164 219.247 105.368 219.468 105.529 219.737C105.69 220.007 105.77 220.337 105.77 220.729C105.77 221.181 105.651 221.59 105.415 221.955C105.18 222.319 104.837 222.609 104.385 222.824C103.936 223.039 103.39 223.147 102.748 223.147C102.149 223.147 101.63 223.05 101.192 222.857C100.756 222.664 100.413 222.394 100.163 222.048C99.915 221.703 99.7748 221.301 99.7422 220.844H100.788C100.815 221.16 100.921 221.421 101.106 221.628C101.294 221.832 101.531 221.984 101.817 222.085C102.105 222.183 102.416 222.232 102.748 222.232C103.134 222.232 103.482 222.17 103.789 222.044C104.097 221.916 104.341 221.739 104.52 221.513C104.7 221.285 104.79 221.018 104.79 220.713C104.79 220.435 104.712 220.209 104.557 220.035C104.402 219.861 104.198 219.719 103.944 219.61C103.691 219.502 103.418 219.406 103.124 219.325L102.094 219.031C101.441 218.843 100.924 218.575 100.543 218.226C100.161 217.878 99.9708 217.422 99.9708 216.858C99.9708 216.39 100.097 215.981 100.351 215.633C100.607 215.282 100.95 215.009 101.38 214.816C101.813 214.62 102.296 214.522 102.83 214.522C103.369 214.522 103.848 214.619 104.267 214.812C104.686 215.003 105.018 215.264 105.263 215.596C105.511 215.928 105.642 216.305 105.656 216.727H104.675ZM110.518 214.636V223H109.505V214.636H110.518ZM120.336 217.25C120.246 216.975 120.128 216.729 119.981 216.511C119.836 216.29 119.663 216.102 119.462 215.947C119.263 215.792 119.037 215.674 118.784 215.592C118.531 215.51 118.253 215.469 117.951 215.469C117.455 215.469 117.005 215.597 116.599 215.853C116.193 216.109 115.871 216.486 115.631 216.985C115.392 217.483 115.272 218.094 115.272 218.818C115.272 219.542 115.393 220.154 115.635 220.652C115.878 221.15 116.206 221.527 116.62 221.783C117.033 222.039 117.499 222.167 118.016 222.167C118.495 222.167 118.917 222.065 119.282 221.861C119.65 221.654 119.936 221.362 120.14 220.987C120.347 220.608 120.45 220.163 120.45 219.651L120.761 219.717H118.245V218.818H121.43V219.717C121.43 220.405 121.283 221.004 120.989 221.513C120.698 222.023 120.295 222.417 119.78 222.698C119.269 222.975 118.681 223.114 118.016 223.114C117.276 223.114 116.625 222.94 116.064 222.592C115.506 222.243 115.07 221.748 114.757 221.105C114.447 220.463 114.292 219.7 114.292 218.818C114.292 218.157 114.38 217.562 114.557 217.034C114.737 216.503 114.99 216.051 115.317 215.678C115.644 215.305 116.03 215.019 116.477 214.82C116.923 214.621 117.415 214.522 117.951 214.522C118.392 214.522 118.803 214.589 119.184 214.722C119.568 214.853 119.91 215.039 120.209 215.282C120.511 215.521 120.763 215.808 120.965 216.143C121.166 216.475 121.305 216.844 121.381 217.25H120.336ZM131.867 214.636V223H130.887L126.329 216.433H126.248V223H125.235V214.636H126.215L130.789 221.219H130.871V214.636H131.867Z" fill="white"/>
</g>
<path id="|" d="M189.739 211.941V225.695H188.922V211.941H189.739Z" fill="white"/>
<g id="Frame 12">
<path id="User Experience" d="M225.887 214.636H226.9V220.174C226.9 220.746 226.765 221.256 226.495 221.705C226.228 222.152 225.851 222.504 225.364 222.763C224.877 223.019 224.305 223.147 223.649 223.147C222.993 223.147 222.421 223.019 221.934 222.763C221.446 222.504 221.068 222.152 220.798 221.705C220.532 221.256 220.398 220.746 220.398 220.174V214.636H221.411V220.092C221.411 220.501 221.501 220.864 221.68 221.183C221.86 221.499 222.116 221.748 222.448 221.93C222.783 222.11 223.183 222.2 223.649 222.2C224.114 222.2 224.515 222.11 224.85 221.93C225.184 221.748 225.44 221.499 225.617 221.183C225.797 220.864 225.887 220.501 225.887 220.092V214.636ZM235.566 216.727C235.517 216.313 235.318 215.992 234.97 215.763C234.621 215.535 234.194 215.42 233.687 215.42C233.317 215.42 232.993 215.48 232.715 215.6C232.44 215.72 232.225 215.885 232.07 216.094C231.918 216.304 231.842 216.542 231.842 216.809C231.842 217.032 231.895 217.224 232.001 217.385C232.11 217.543 232.249 217.675 232.417 217.781C232.586 217.884 232.763 217.97 232.948 218.038C233.133 218.104 233.304 218.157 233.459 218.197L234.308 218.426C234.526 218.483 234.768 218.562 235.035 218.663C235.305 218.764 235.562 218.901 235.807 219.075C236.055 219.247 236.259 219.468 236.419 219.737C236.58 220.007 236.66 220.337 236.66 220.729C236.66 221.181 236.542 221.59 236.305 221.955C236.071 222.319 235.728 222.609 235.276 222.824C234.827 223.039 234.281 223.147 233.638 223.147C233.039 223.147 232.521 223.05 232.082 222.857C231.647 222.664 231.304 222.394 231.053 222.048C230.806 221.703 230.665 221.301 230.633 220.844H231.678C231.705 221.16 231.812 221.421 231.997 221.628C232.185 221.832 232.421 221.984 232.707 222.085C232.996 222.183 233.306 222.232 233.638 222.232C234.025 222.232 234.372 222.17 234.68 222.044C234.987 221.916 235.231 221.739 235.411 221.513C235.59 221.285 235.68 221.018 235.68 220.713C235.68 220.435 235.603 220.209 235.448 220.035C235.292 219.861 235.088 219.719 234.835 219.61C234.582 219.502 234.308 219.406 234.014 219.325L232.985 219.031C232.332 218.843 231.814 218.575 231.433 218.226C231.052 217.878 230.861 217.422 230.861 216.858C230.861 216.39 230.988 215.981 231.241 215.633C231.497 215.282 231.84 215.009 232.27 214.816C232.703 214.62 233.186 214.522 233.72 214.522C234.259 214.522 234.738 214.619 235.158 214.812C235.577 215.003 235.909 215.264 236.154 215.596C236.402 215.928 236.532 216.305 236.546 216.727H235.566ZM240.396 223V214.636H245.443V215.535H241.408V218.361H245.182V219.259H241.408V222.102H245.509V223H240.396ZM249.339 223V214.636H252.165C252.818 214.636 253.354 214.748 253.774 214.971C254.193 215.192 254.503 215.495 254.705 215.882C254.906 216.269 255.007 216.708 255.007 217.201C255.007 217.694 254.906 218.131 254.705 218.512C254.503 218.893 254.194 219.193 253.778 219.41C253.361 219.625 252.829 219.733 252.181 219.733H249.894V218.818H252.148C252.595 218.818 252.954 218.753 253.226 218.622C253.501 218.491 253.7 218.306 253.823 218.067C253.948 217.824 254.01 217.536 254.01 217.201C254.01 216.866 253.948 216.573 253.823 216.323C253.697 216.073 253.497 215.879 253.222 215.743C252.947 215.604 252.584 215.535 252.132 215.535H250.351V223H249.339ZM253.275 219.243L255.334 223H254.158L252.132 219.243H253.275ZM264.069 223V214.636H269.117V215.535H265.082V218.361H268.855V219.259H265.082V222.102H269.182V223H264.069ZM273.502 214.636L275.658 218.116H275.724L277.88 214.636H279.072L276.442 218.818L279.072 223H277.88L275.724 219.586H275.658L273.502 223H272.31L275.005 218.818L272.31 214.636H273.502ZM282.46 223V214.636H285.286C285.943 214.636 286.479 214.755 286.895 214.992C287.315 215.226 287.625 215.543 287.827 215.943C288.028 216.343 288.129 216.79 288.129 217.283C288.129 217.775 288.028 218.223 287.827 218.626C287.628 219.029 287.32 219.35 286.904 219.59C286.487 219.827 285.953 219.945 285.303 219.945H283.277V219.047H285.27C285.719 219.047 286.08 218.969 286.352 218.814C286.625 218.659 286.822 218.449 286.944 218.185C287.07 217.918 287.132 217.618 287.132 217.283C287.132 216.948 287.07 216.648 286.944 216.384C286.822 216.12 286.623 215.913 286.348 215.763C286.073 215.611 285.708 215.535 285.254 215.535H283.473V223H282.46ZM291.83 223V214.636H296.878V215.535H292.843V218.361H296.616V219.259H292.843V222.102H296.943V223H291.83ZM300.773 223V214.636H303.599C304.253 214.636 304.789 214.748 305.208 214.971C305.628 215.192 305.938 215.495 306.139 215.882C306.341 216.269 306.442 216.708 306.442 217.201C306.442 217.694 306.341 218.131 306.139 218.512C305.938 218.893 305.629 219.193 305.212 219.41C304.796 219.625 304.264 219.733 303.616 219.733H301.329V218.818H303.583C304.029 218.818 304.389 218.753 304.661 218.622C304.936 218.491 305.135 218.306 305.257 218.067C305.383 217.824 305.445 217.536 305.445 217.201C305.445 216.866 305.383 216.573 305.257 216.323C305.132 216.073 304.932 215.879 304.657 215.743C304.382 215.604 304.019 215.535 303.567 215.535H301.786V223H300.773ZM304.71 219.243L306.768 223H305.592L303.567 219.243H304.71ZM311.212 214.636V223H310.199V214.636H311.212ZM315.313 223V214.636H320.36V215.535H316.325V218.361H320.099V219.259H316.325V222.102H320.426V223H315.313ZM330.888 214.636V223H329.908L325.35 216.433H325.269V223H324.256V214.636H325.236L329.81 221.219H329.891V214.636H330.888ZM341.715 217.25H340.702C340.642 216.959 340.537 216.703 340.387 216.482C340.24 216.262 340.061 216.077 339.848 215.927C339.639 215.774 339.406 215.66 339.15 215.584C338.894 215.508 338.627 215.469 338.349 215.469C337.843 215.469 337.384 215.597 336.973 215.853C336.565 216.109 336.24 216.486 335.997 216.985C335.758 217.483 335.638 218.094 335.638 218.818C335.638 219.542 335.758 220.154 335.997 220.652C336.24 221.15 336.565 221.527 336.973 221.783C337.384 222.039 337.843 222.167 338.349 222.167C338.627 222.167 338.894 222.129 339.15 222.053C339.406 221.976 339.639 221.863 339.848 221.714C340.061 221.561 340.24 221.375 340.387 221.154C340.537 220.931 340.642 220.675 340.702 220.386H341.715C341.638 220.814 341.499 221.196 341.298 221.534C341.097 221.872 340.846 222.159 340.547 222.396C340.247 222.63 339.911 222.808 339.538 222.931C339.168 223.053 338.771 223.114 338.349 223.114C337.636 223.114 337.002 222.94 336.446 222.592C335.891 222.243 335.454 221.748 335.136 221.105C334.817 220.463 334.658 219.7 334.658 218.818C334.658 217.936 334.817 217.174 335.136 216.531C335.454 215.889 335.891 215.393 336.446 215.045C337.002 214.696 337.636 214.522 338.349 214.522C338.771 214.522 339.168 214.583 339.538 214.706C339.911 214.828 340.247 215.008 340.547 215.245C340.846 215.479 341.097 215.765 341.298 216.102C341.499 216.437 341.638 216.82 341.715 217.25ZM345.421 223V214.636H350.469V215.535H346.434V218.361H350.207V219.259H346.434V222.102H350.534V223H345.421Z" fill="white"/>
</g>
<path id="|_2" d="M384.072 211.941V225.695H383.256V211.941H384.072Z" fill="white"/>
<g id="Frame 13">
<path id="Digital Solutions" d="M421.016 223H418.435V214.636H421.131C421.942 214.636 422.636 214.804 423.214 215.139C423.791 215.471 424.233 215.949 424.541 216.572C424.848 217.193 425.002 217.936 425.002 218.802C425.002 219.673 424.847 220.423 424.537 221.052C424.226 221.678 423.774 222.16 423.181 222.498C422.587 222.833 421.866 223 421.016 223ZM419.448 222.102H420.951C421.643 222.102 422.216 221.968 422.67 221.701C423.125 221.435 423.464 221.055 423.687 220.562C423.91 220.069 424.022 219.482 424.022 218.802C424.022 218.127 423.912 217.545 423.691 217.058C423.471 216.568 423.141 216.192 422.703 215.931C422.265 215.667 421.719 215.535 421.065 215.535H419.448V222.102ZM429.784 214.636V223H428.771V214.636H429.784ZM439.602 217.25C439.512 216.975 439.394 216.729 439.247 216.511C439.102 216.29 438.929 216.102 438.728 215.947C438.529 215.792 438.303 215.674 438.05 215.592C437.797 215.51 437.519 215.469 437.217 215.469C436.721 215.469 436.271 215.597 435.865 215.853C435.46 216.109 435.137 216.486 434.897 216.985C434.658 217.483 434.538 218.094 434.538 218.818C434.538 219.542 434.659 220.154 434.901 220.652C435.144 221.15 435.472 221.527 435.886 221.783C436.299 222.039 436.765 222.167 437.282 222.167C437.761 222.167 438.183 222.065 438.548 221.861C438.916 221.654 439.202 221.362 439.406 220.987C439.613 220.608 439.716 220.163 439.716 219.651L440.027 219.717H437.511V218.818H440.696V219.717C440.696 220.405 440.549 221.004 440.255 221.513C439.964 222.023 439.561 222.417 439.046 222.698C438.535 222.975 437.947 223.114 437.282 223.114C436.542 223.114 435.891 222.94 435.33 222.592C434.772 222.243 434.336 221.748 434.023 221.105C433.713 220.463 433.558 219.7 433.558 218.818C433.558 218.157 433.646 217.562 433.823 217.034C434.003 216.503 434.256 216.051 434.583 215.678C434.91 215.305 435.296 215.019 435.743 214.82C436.189 214.621 436.681 214.522 437.217 214.522C437.658 214.522 438.069 214.589 438.45 214.722C438.834 214.853 439.176 215.039 439.475 215.282C439.777 215.521 440.029 215.808 440.231 216.143C440.432 216.475 440.571 216.844 440.647 217.25H439.602ZM445.514 214.636V223H444.501V214.636H445.514ZM449.157 215.535V214.636H455.43V215.535H452.8V223H451.787V215.535H449.157ZM458.429 223H457.367L460.438 214.636H461.483L464.554 223H463.493L460.993 215.96H460.928L458.429 223ZM458.821 219.733H463.101V220.631H458.821V219.733ZM467.927 223V214.636H468.94V222.102H472.828V223H467.927ZM486.344 216.727C486.295 216.313 486.096 215.992 485.748 215.763C485.399 215.535 484.972 215.42 484.466 215.42C484.095 215.42 483.771 215.48 483.494 215.6C483.219 215.72 483.004 215.885 482.848 216.094C482.696 216.304 482.62 216.542 482.62 216.809C482.62 217.032 482.673 217.224 482.779 217.385C482.888 217.543 483.027 217.675 483.196 217.781C483.364 217.884 483.541 217.97 483.726 218.038C483.912 218.104 484.082 218.157 484.237 218.197L485.086 218.426C485.304 218.483 485.547 218.562 485.813 218.663C486.083 218.764 486.34 218.901 486.585 219.075C486.833 219.247 487.037 219.468 487.198 219.737C487.358 220.007 487.439 220.337 487.439 220.729C487.439 221.181 487.32 221.59 487.083 221.955C486.849 222.319 486.506 222.609 486.054 222.824C485.605 223.039 485.059 223.147 484.417 223.147C483.818 223.147 483.299 223.05 482.861 222.857C482.425 222.664 482.082 222.394 481.832 222.048C481.584 221.703 481.444 221.301 481.411 220.844H482.456C482.484 221.16 482.59 221.421 482.775 221.628C482.963 221.832 483.2 221.984 483.486 222.085C483.774 222.183 484.085 222.232 484.417 222.232C484.803 222.232 485.15 222.17 485.458 222.044C485.766 221.916 486.009 221.739 486.189 221.513C486.369 221.285 486.459 221.018 486.459 220.713C486.459 220.435 486.381 220.209 486.226 220.035C486.071 219.861 485.866 219.719 485.613 219.61C485.36 219.502 485.086 219.406 484.792 219.325L483.763 219.031C483.11 218.843 482.593 218.575 482.211 218.226C481.83 217.878 481.64 217.422 481.64 216.858C481.64 216.39 481.766 215.981 482.019 215.633C482.275 215.282 482.618 215.009 483.049 214.816C483.481 214.62 483.965 214.522 484.498 214.522C485.037 214.522 485.517 214.619 485.936 214.812C486.355 215.003 486.687 215.264 486.932 215.596C487.18 215.928 487.311 216.305 487.324 216.727H486.344ZM498.231 218.818C498.231 219.7 498.071 220.463 497.753 221.105C497.434 221.748 496.997 222.243 496.442 222.592C495.887 222.94 495.252 223.114 494.539 223.114C493.826 223.114 493.191 222.94 492.636 222.592C492.08 222.243 491.643 221.748 491.325 221.105C491.006 220.463 490.847 219.7 490.847 218.818C490.847 217.936 491.006 217.174 491.325 216.531C491.643 215.889 492.08 215.393 492.636 215.045C493.191 214.696 493.826 214.522 494.539 214.522C495.252 214.522 495.887 214.696 496.442 215.045C496.997 215.393 497.434 215.889 497.753 216.531C498.071 217.174 498.231 217.936 498.231 218.818ZM497.251 218.818C497.251 218.094 497.129 217.483 496.887 216.985C496.648 216.486 496.322 216.109 495.911 215.853C495.503 215.597 495.045 215.469 494.539 215.469C494.033 215.469 493.574 215.597 493.163 215.853C492.754 216.109 492.429 216.486 492.187 216.985C491.947 217.483 491.827 218.094 491.827 218.818C491.827 219.542 491.947 220.154 492.187 220.652C492.429 221.15 492.754 221.527 493.163 221.783C493.574 222.039 494.033 222.167 494.539 222.167C495.045 222.167 495.503 222.039 495.911 221.783C496.322 221.527 496.648 221.15 496.887 220.652C497.129 220.154 497.251 219.542 497.251 218.818ZM502.004 223V214.636H503.016V222.102H506.904V223H502.004ZM516.031 214.636H517.044V220.174C517.044 220.746 516.909 221.256 516.639 221.705C516.373 222.152 515.996 222.504 515.508 222.763C515.021 223.019 514.449 223.147 513.793 223.147C513.137 223.147 512.565 223.019 512.078 222.763C511.591 222.504 511.212 222.152 510.943 221.705C510.676 221.256 510.542 220.746 510.542 220.174V214.636H511.555V220.092C511.555 220.501 511.645 220.864 511.825 221.183C512.004 221.499 512.26 221.748 512.592 221.93C512.927 222.11 513.328 222.2 513.793 222.2C514.259 222.2 514.659 222.11 514.994 221.93C515.329 221.748 515.585 221.499 515.761 221.183C515.941 220.864 516.031 220.501 516.031 220.092V214.636ZM520.679 215.535V214.636H526.952V215.535H524.322V223H523.309V215.535H520.679ZM531.597 214.636V223H530.585V214.636H531.597ZM542.755 218.818C542.755 219.7 542.596 220.463 542.277 221.105C541.959 221.748 541.522 222.243 540.966 222.592C540.411 222.94 539.777 223.114 539.063 223.114C538.35 223.114 537.716 222.94 537.16 222.592C536.605 222.243 536.168 221.748 535.849 221.105C535.531 220.463 535.371 219.7 535.371 218.818C535.371 217.936 535.531 217.174 535.849 216.531C536.168 215.889 536.605 215.393 537.16 215.045C537.716 214.696 538.35 214.522 539.063 214.522C539.777 214.522 540.411 214.696 540.966 215.045C541.522 215.393 541.959 215.889 542.277 216.531C542.596 217.174 542.755 217.936 542.755 218.818ZM541.775 218.818C541.775 218.094 541.654 217.483 541.411 216.985C541.172 216.486 540.846 216.109 540.435 215.853C540.027 215.597 539.57 215.469 539.063 215.469C538.557 215.469 538.098 215.597 537.687 215.853C537.279 216.109 536.953 216.486 536.711 216.985C536.471 217.483 536.352 218.094 536.352 218.818C536.352 219.542 536.471 220.154 536.711 220.652C536.953 221.15 537.279 221.527 537.687 221.783C538.098 222.039 538.557 222.167 539.063 222.167C539.57 222.167 540.027 222.039 540.435 221.783C540.846 221.527 541.172 221.15 541.411 220.652C541.654 220.154 541.775 219.542 541.775 218.818ZM553.16 214.636V223H552.18L547.622 216.433H547.541V223H546.528V214.636H547.508L552.082 221.219H552.164V214.636H553.16ZM561.83 216.727C561.781 216.313 561.583 215.992 561.234 215.763C560.886 215.535 560.458 215.42 559.952 215.42C559.582 215.42 559.258 215.48 558.98 215.6C558.705 215.72 558.49 215.885 558.335 216.094C558.182 216.304 558.106 216.542 558.106 216.809C558.106 217.032 558.159 217.224 558.265 217.385C558.374 217.543 558.513 217.675 558.682 217.781C558.851 217.884 559.028 217.97 559.213 218.038C559.398 218.104 559.568 218.157 559.723 218.197L560.573 218.426C560.79 218.483 561.033 218.562 561.3 218.663C561.569 218.764 561.826 218.901 562.071 219.075C562.319 219.247 562.523 219.468 562.684 219.737C562.845 220.007 562.925 220.337 562.925 220.729C562.925 221.181 562.807 221.59 562.57 221.955C562.336 222.319 561.992 222.609 561.541 222.824C561.091 223.039 560.545 223.147 559.903 223.147C559.304 223.147 558.785 223.05 558.347 222.857C557.911 222.664 557.568 222.394 557.318 222.048C557.07 221.703 556.93 221.301 556.897 220.844H557.943C557.97 221.16 558.076 221.421 558.261 221.628C558.449 221.832 558.686 221.984 558.972 222.085C559.26 222.183 559.571 222.232 559.903 222.232C560.29 222.232 560.637 222.17 560.944 222.044C561.252 221.916 561.496 221.739 561.675 221.513C561.855 221.285 561.945 221.018 561.945 220.713C561.945 220.435 561.867 220.209 561.712 220.035C561.557 219.861 561.353 219.719 561.099 219.61C560.846 219.502 560.573 219.406 560.279 219.325L559.25 219.031C558.596 218.843 558.079 218.575 557.698 218.226C557.317 217.878 557.126 217.422 557.126 216.858C557.126 216.39 557.253 215.981 557.506 215.633C557.762 215.282 558.105 215.009 558.535 214.816C558.968 214.62 559.451 214.522 559.985 214.522C560.524 214.522 561.003 214.619 561.422 214.812C561.841 215.003 562.174 215.264 562.419 215.596C562.666 215.928 562.797 216.305 562.811 216.727H561.83Z" fill="white"/>
</g>
</g>
<g id="Group 3">
<g id="Designer">
<path fill-rule="evenodd" clip-rule="evenodd" d="M33.1246 122.834H9V52.8522H33.5005C40.4714 52.8522 46.4741 54.2532 51.5086 57.0552C56.5431 59.8344 60.4044 63.8324 63.0925 69.0492C65.8034 74.2659 67.1588 80.5078 67.1588 87.7748C67.1588 95.0646 65.8034 101.329 63.0925 106.569C60.3816 111.808 56.4861 115.829 51.4061 118.631C46.326 121.433 40.2322 122.834 33.1246 122.834ZM32.5096 111.284H22.4292V64.4019H32.7488C37.3732 64.4019 41.2459 65.2562 44.3669 66.9647C47.4878 68.6505 49.8456 71.2247 51.4402 74.6874C53.0349 78.1272 53.8322 82.4897 53.8322 87.7748C53.8322 93.0827 53.0349 97.4793 51.4402 100.965C49.8456 104.427 47.465 107.013 44.2985 108.722C41.132 110.43 37.2024 111.284 32.5096 111.284Z" stroke="white" stroke-width="1.26612"/>
<path d="M90.3667 122.834V52.8522H136.463V64.0261H103.796V82.205H134.105V93.413H103.796V111.66H136.702V122.834H90.3667Z" stroke="white" stroke-width="1.26612"/>
<path d="M198.583 72.3979C198.287 69.5048 197 67.2495 194.722 65.6321C192.467 64.0147 189.494 63.206 185.803 63.206C183.252 63.206 181.065 63.5818 179.242 64.3336C177.443 65.0853 176.065 66.1105 175.108 67.409C174.151 68.7075 173.661 70.1882 173.638 71.8512C173.616 73.2408 173.923 74.4482 174.561 75.4733C175.222 76.4984 176.11 77.3755 177.226 78.1045C178.343 78.8107 179.584 79.4143 180.951 79.9155C182.341 80.4167 183.776 80.8381 185.257 81.1798L191.715 82.7517C194.494 83.3896 197.125 84.2552 199.608 85.3487C202.114 86.4194 204.324 87.7634 206.237 89.3808C208.151 90.9983 209.655 92.9346 210.748 95.1899C211.864 97.4452 212.422 100.065 212.422 103.049C212.422 107.218 211.363 110.863 209.244 113.984C207.126 117.105 204.073 119.531 200.087 121.262C196.1 122.994 191.293 123.859 185.667 123.859C180.154 123.859 175.358 123.016 171.281 121.331C167.226 119.622 164.059 117.128 161.781 113.847C159.503 110.544 158.284 106.5 158.125 101.717H171.246C171.429 104.108 172.158 106.113 173.433 107.731C174.709 109.325 176.395 110.521 178.491 111.319C180.586 112.093 182.933 112.48 185.53 112.48C188.195 112.48 190.53 112.082 192.535 111.284C194.54 110.487 196.111 109.382 197.25 107.97C198.39 106.535 198.959 104.872 198.959 102.981C198.959 101.25 198.446 99.8144 197.421 98.6753C196.419 97.5135 194.995 96.5453 193.15 95.7708C191.328 94.9735 189.152 94.2559 186.623 93.618L178.798 91.602C172.989 90.144 168.399 87.9001 165.027 84.8703C161.656 81.8405 159.981 77.7969 160.004 72.7396C159.981 68.5708 161.098 64.9259 163.353 61.8049C165.608 58.684 168.695 56.2579 172.613 54.5265C176.554 52.7724 181.008 51.8954 185.974 51.8954C191.009 51.8954 195.428 52.7724 199.232 54.5265C203.037 56.2579 206.01 58.6726 208.151 61.7708C210.292 64.8462 211.397 68.3885 211.466 72.3979H198.583Z" stroke="white" stroke-width="1.26612"/>
<path d="M248.205 52.8522V122.834H234.776V52.8522H248.205Z" stroke="white" stroke-width="1.26612"/>
<path d="M319.756 75.3024C319.209 73.5028 318.458 71.9081 317.501 70.5185C316.567 69.1061 315.428 67.9101 314.084 66.9306C312.763 65.9282 311.248 65.1651 309.539 64.6411C307.831 64.1172 305.963 63.8552 303.935 63.8552C300.245 63.8552 296.964 64.7892 294.094 66.6572C291.246 68.5024 289.014 71.2019 287.396 74.7557C285.779 78.3095 284.97 82.6492 284.97 87.7748C284.97 92.9232 285.768 97.2857 287.362 100.862C288.98 104.439 291.223 107.161 294.094 109.029C296.964 110.897 300.313 111.831 304.14 111.831C307.626 111.831 310.633 111.182 313.161 109.883C315.69 108.562 317.638 106.705 319.004 104.314C320.309 102.009 320.991 99.3211 321.05 96.2492H305.302V85.9296H334.005V94.4723C334.005 100.509 332.718 105.726 330.144 110.123C327.593 114.496 324.062 117.868 319.551 120.237C315.063 122.606 309.915 123.791 304.106 123.791C297.613 123.791 291.918 122.344 287.02 119.451C282.123 116.535 278.295 112.401 275.539 107.047C272.805 101.671 271.439 95.2924 271.439 87.9115C271.439 82.2619 272.247 77.216 273.865 72.7738C275.505 68.3088 277.783 64.5272 280.699 61.4291C283.638 58.3309 287.066 55.9731 290.984 54.3557C294.903 52.7155 299.151 51.8954 303.73 51.8954C307.648 51.8954 311.293 52.4649 314.665 53.6039C318.036 54.743 321.032 56.349 323.652 58.422C326.271 60.4951 328.424 62.9668 330.11 65.8371C331.796 68.7075 332.889 71.8626 333.39 75.3024H319.756Z" stroke="white" stroke-width="1.26612"/>
<path d="M415.27 52.8522V122.834H403.481L371.36 76.4301H370.813V122.834H357.384V52.8522H369.344L401.294 99.2562H401.909V52.8522H415.27Z" stroke="white" stroke-width="1.26612"/>
<path d="M440.066 122.834V52.8522H486.163V64.0261H453.496V82.205H483.805V93.413H453.496V111.66H486.402V122.834H440.066Z" stroke="white" stroke-width="1.26612"/>
<path fill-rule="evenodd" clip-rule="evenodd" d="M510.251 122.834V52.8522H537.006C542.337 52.8522 546.848 53.7862 550.538 55.6542C554.229 57.5222 557.031 60.1533 558.944 63.5477C560.858 66.942 561.815 70.8944 561.815 75.405C561.815 79.9383 560.846 83.8679 558.91 87.1939C556.974 90.4971 554.137 93.0371 550.401 94.814C550.039 94.9872 549.669 95.152 549.291 95.3084L564.343 122.834H549.445L535.853 97.4794H523.68V122.834H510.251ZM542.269 85.2462C540.332 86.0891 537.849 86.5105 534.82 86.5105H523.68V63.9577H534.717C537.77 63.9577 540.275 64.4133 542.235 65.3245C544.217 66.213 545.686 67.5115 546.643 69.22C547.599 70.9058 548.078 72.9674 548.078 75.405C548.078 77.8197 547.599 79.8586 546.643 81.5215C545.686 83.1617 544.228 84.4033 542.269 85.2462Z" stroke="white" stroke-width="1.26612"/>
</g>
<mask id="mask0_343_14" style="mask-type:alpha" maskUnits="userSpaceOnUse" x="8" y="51" width="558" height="74">
<g id="Designer_2">
<path fill-rule="evenodd" clip-rule="evenodd" d="M33.1246 122.834H9V52.8522H33.5005C40.4714 52.8522 46.4741 54.2532 51.5086 57.0552C56.5431 59.8344 60.4044 63.8324 63.0925 69.0492C65.8034 74.2659 67.1588 80.5078 67.1588 87.7748C67.1588 95.0646 65.8034 101.329 63.0925 106.569C60.3816 111.808 56.4861 115.829 51.4061 118.631C46.326 121.433 40.2322 122.834 33.1246 122.834ZM32.5096 111.284H22.4292V64.4019H32.7488C37.3732 64.4019 41.2459 65.2562 44.3669 66.9647C47.4878 68.6505 49.8456 71.2247 51.4402 74.6874C53.0349 78.1272 53.8322 82.4897 53.8322 87.7748C53.8322 93.0827 53.0349 97.4793 51.4402 100.965C49.8456 104.427 47.465 107.013 44.2985 108.722C41.132 110.43 37.2024 111.284 32.5096 111.284Z" fill="white"/>
<path d="M90.3667 122.834V52.8522H136.463V64.0261H103.796V82.205H134.105V93.413H103.796V111.66H136.702V122.834H90.3667Z" fill="white"/>
<path d="M198.583 72.3979C198.287 69.5048 197 67.2495 194.722 65.6321C192.467 64.0147 189.494 63.206 185.803 63.206C183.252 63.206 181.065 63.5818 179.242 64.3336C177.443 65.0853 176.065 66.1105 175.108 67.409C174.151 68.7075 173.661 70.1882 173.638 71.8512C173.616 73.2408 173.923 74.4482 174.561 75.4733C175.222 76.4984 176.11 77.3755 177.226 78.1045C178.343 78.8107 179.584 79.4143 180.951 79.9155C182.341 80.4167 183.776 80.8381 185.257 81.1798L191.715 82.7517C194.494 83.3896 197.125 84.2552 199.608 85.3487C202.114 86.4194 204.324 87.7634 206.237 89.3808C208.151 90.9983 209.655 92.9346 210.748 95.1899C211.864 97.4452 212.422 100.065 212.422 103.049C212.422 107.218 211.363 110.863 209.244 113.984C207.126 117.105 204.073 119.531 200.087 121.262C196.1 122.994 191.293 123.859 185.667 123.859C180.154 123.859 175.358 123.016 171.281 121.331C167.226 119.622 164.059 117.128 161.781 113.847C159.503 110.544 158.284 106.5 158.125 101.717H171.246C171.429 104.108 172.158 106.113 173.433 107.731C174.709 109.325 176.395 110.521 178.491 111.319C180.586 112.093 182.933 112.48 185.53 112.48C188.195 112.48 190.53 112.082 192.535 111.284C194.54 110.487 196.111 109.382 197.25 107.97C198.39 106.535 198.959 104.872 198.959 102.981C198.959 101.25 198.446 99.8144 197.421 98.6753C196.419 97.5135 194.995 96.5453 193.15 95.7708C191.328 94.9735 189.152 94.2559 186.623 93.618L178.798 91.602C172.989 90.144 168.399 87.9001 165.027 84.8703C161.656 81.8405 159.981 77.7969 160.004 72.7396C159.981 68.5708 161.098 64.9259 163.353 61.8049C165.608 58.684 168.695 56.2579 172.613 54.5265C176.554 52.7724 181.008 51.8954 185.974 51.8954C191.009 51.8954 195.428 52.7724 199.232 54.5265C203.037 56.2579 206.01 58.6726 208.151 61.7708C210.292 64.8462 211.397 68.3885 211.466 72.3979H198.583Z" fill="white"/>
<path d="M248.205 52.8522V122.834H234.776V52.8522H248.205Z" fill="white"/>
<path d="M319.756 75.3024C319.209 73.5028 318.458 71.9081 317.501 70.5185C316.567 69.1061 315.428 67.9101 314.084 66.9306C312.763 65.9282 311.248 65.1651 309.539 64.6411C307.831 64.1172 305.963 63.8552 303.935 63.8552C300.245 63.8552 296.964 64.7892 294.094 66.6572C291.246 68.5024 289.014 71.2019 287.396 74.7557C285.779 78.3095 284.97 82.6492 284.97 87.7748C284.97 92.9232 285.768 97.2857 287.362 100.862C288.98 104.439 291.223 107.161 294.094 109.029C296.964 110.897 300.313 111.831 304.14 111.831C307.626 111.831 310.633 111.182 313.161 109.883C315.69 108.562 317.638 106.705 319.004 104.314C320.309 102.009 320.991 99.3211 321.05 96.2492H305.302V85.9296H334.005V94.4723C334.005 100.509 332.718 105.726 330.144 110.123C327.593 114.496 324.062 117.868 319.551 120.237C315.063 122.606 309.915 123.791 304.106 123.791C297.613 123.791 291.918 122.344 287.02 119.451C282.123 116.535 278.295 112.401 275.539 107.047C272.805 101.671 271.439 95.2924 271.439 87.9115C271.439 82.2619 272.247 77.216 273.865 72.7738C275.505 68.3088 277.783 64.5272 280.699 61.4291C283.638 58.3309 287.066 55.9731 290.984 54.3557C294.903 52.7155 299.151 51.8954 303.73 51.8954C307.648 51.8954 311.293 52.4649 314.665 53.6039C318.036 54.743 321.032 56.349 323.652 58.422C326.271 60.4951 328.424 62.9668 330.11 65.8371C331.796 68.7075 332.889 71.8626 333.39 75.3024H319.756Z" fill="white"/>
<path d="M415.27 52.8522V122.834H403.481L371.36 76.4301H370.813V122.834H357.384V52.8522H369.344L401.294 99.2562H401.909V52.8522H415.27Z" fill="white"/>
<path d="M440.066 122.834V52.8522H486.163V64.0261H453.496V82.205H483.805V93.413H453.496V111.66H486.402V122.834H440.066Z" fill="white"/>
<path fill-rule="evenodd" clip-rule="evenodd" d="M510.251 122.834V52.8522H537.006C542.337 52.8522 546.848 53.7862 550.538 55.6542C554.229 57.5222 557.031 60.1533 558.944 63.5477C560.858 66.942 561.815 70.8944 561.815 75.405C561.815 79.9383 560.846 83.8679 558.91 87.1939C556.974 90.4971 554.137 93.0371 550.401 94.814C550.039 94.9872 549.669 95.152 549.291 95.3084L564.343 122.834H549.445L535.853 97.4794H523.68V122.834H510.251ZM542.269 85.2462C540.332 86.0891 537.849 86.5105 534.82 86.5105H523.68V63.9577H534.717C537.77 63.9577 540.275 64.4133 542.235 65.3245C544.217 66.213 545.686 67.5115 546.643 69.22C547.599 70.9058 548.078 72.9674 548.078 75.405C548.078 77.8197 547.599 79.8586 546.643 81.5215C545.686 83.1617 544.228 84.4033 542.269 85.2462Z" fill="white"/>
<path fill-rule="evenodd" clip-rule="evenodd" d="M33.1246 122.834H9V52.8522H33.5005C40.4714 52.8522 46.4741 54.2532 51.5086 57.0552C56.5431 59.8344 60.4044 63.8324 63.0925 69.0492C65.8034 74.2659 67.1588 80.5078 67.1588 87.7748C67.1588 95.0646 65.8034 101.329 63.0925 106.569C60.3816 111.808 56.4861 115.829 51.4061 118.631C46.326 121.433 40.2322 122.834 33.1246 122.834ZM32.5096 111.284H22.4292V64.4019H32.7488C37.3732 64.4019 41.2459 65.2562 44.3669 66.9647C47.4878 68.6505 49.8456 71.2247 51.4402 74.6874C53.0349 78.1272 53.8322 82.4897 53.8322 87.7748C53.8322 93.0827 53.0349 97.4793 51.4402 100.965C49.8456 104.427 47.465 107.013 44.2985 108.722C41.132 110.43 37.2024 111.284 32.5096 111.284Z" stroke="black" stroke-width="1.26612"/>
<path d="M90.3667 122.834V52.8522H136.463V64.0261H103.796V82.205H134.105V93.413H103.796V111.66H136.702V122.834H90.3667Z" stroke="black" stroke-width="1.26612"/>
<path d="M198.583 72.3979C198.287 69.5048 197 67.2495 194.722 65.6321C192.467 64.0147 189.494 63.206 185.803 63.206C183.252 63.206 181.065 63.5818 179.242 64.3336C177.443 65.0853 176.065 66.1105 175.108 67.409C174.151 68.7075 173.661 70.1882 173.638 71.8512C173.616 73.2408 173.923 74.4482 174.561 75.4733C175.222 76.4984 176.11 77.3755 177.226 78.1045C178.343 78.8107 179.584 79.4143 180.951 79.9155C182.341 80.4167 183.776 80.8381 185.257 81.1798L191.715 82.7517C194.494 83.3896 197.125 84.2552 199.608 85.3487C202.114 86.4194 204.324 87.7634 206.237 89.3808C208.151 90.9983 209.655 92.9346 210.748 95.1899C211.864 97.4452 212.422 100.065 212.422 103.049C212.422 107.218 211.363 110.863 209.244 113.984C207.126 117.105 204.073 119.531 200.087 121.262C196.1 122.994 191.293 123.859 185.667 123.859C180.154 123.859 175.358 123.016 171.281 121.331C167.226 119.622 164.059 117.128 161.781 113.847C159.503 110.544 158.284 106.5 158.125 101.717H171.246C171.429 104.108 172.158 106.113 173.433 107.731C174.709 109.325 176.395 110.521 178.491 111.319C180.586 112.093 182.933 112.48 185.53 112.48C188.195 112.48 190.53 112.082 192.535 111.284C194.54 110.487 196.111 109.382 197.25 107.97C198.39 106.535 198.959 104.872 198.959 102.981C198.959 101.25 198.446 99.8144 197.421 98.6753C196.419 97.5135 194.995 96.5453 193.15 95.7708C191.328 94.9735 189.152 94.2559 186.623 93.618L178.798 91.602C172.989 90.144 168.399 87.9001 165.027 84.8703C161.656 81.8405 159.981 77.7969 160.004 72.7396C159.981 68.5708 161.098 64.9259 163.353 61.8049C165.608 58.684 168.695 56.2579 172.613 54.5265C176.554 52.7724 181.008 51.8954 185.974 51.8954C191.009 51.8954 195.428 52.7724 199.232 54.5265C203.037 56.2579 206.01 58.6726 208.151 61.7708C210.292 64.8462 211.397 68.3885 211.466 72.3979H198.583Z" stroke="black" stroke-width="1.26612"/>
<path d="M248.205 52.8522V122.834H234.776V52.8522H248.205Z" stroke="black" stroke-width="1.26612"/>
<path d="M319.756 75.3024C319.209 73.5028 318.458 71.9081 317.501 70.5185C316.567 69.1061 315.428 67.9101 314.084 66.9306C312.763 65.9282 311.248 65.1651 309.539 64.6411C307.831 64.1172 305.963 63.8552 303.935 63.8552C300.245 63.8552 296.964 64.7892 294.094 66.6572C291.246 68.5024 289.014 71.2019 287.396 74.7557C285.779 78.3095 284.97 82.6492 284.97 87.7748C284.97 92.9232 285.768 97.2857 287.362 100.862C288.98 104.439 291.223 107.161 294.094 109.029C296.964 110.897 300.313 111.831 304.14 111.831C307.626 111.831 310.633 111.182 313.161 109.883C315.69 108.562 317.638 106.705 319.004 104.314C320.309 102.009 320.991 99.3211 321.05 96.2492H305.302V85.9296H334.005V94.4723C334.005 100.509 332.718 105.726 330.144 110.123C327.593 114.496 324.062 117.868 319.551 120.237C315.063 122.606 309.915 123.791 304.106 123.791C297.613 123.791 291.918 122.344 287.02 119.451C282.123 116.535 278.295 112.401 275.539 107.047C272.805 101.671 271.439 95.2924 271.439 87.9115C271.439 82.2619 272.247 77.216 273.865 72.7738C275.505 68.3088 277.783 64.5272 280.699 61.4291C283.638 58.3309 287.066 55.9731 290.984 54.3557C294.903 52.7155 299.151 51.8954 303.73 51.8954C307.648 51.8954 311.293 52.4649 314.665 53.6039C318.036 54.743 321.032 56.349 323.652 58.422C326.271 60.4951 328.424 62.9668 330.11 65.8371C331.796 68.7075 332.889 71.8626 333.39 75.3024H319.756Z" stroke="black" stroke-width="1.26612"/>
<path d="M415.27 52.8522V122.834H403.481L371.36 76.4301H370.813V122.834H357.384V52.8522H369.344L401.294 99.2562H401.909V52.8522H415.27Z" stroke="black" stroke-width="1.26612"/>
<path d="M440.066 122.834V52.8522H486.163V64.0261H453.496V82.205H483.805V93.413H453.496V111.66H486.402V122.834H440.066Z" stroke="black" stroke-width="1.26612"/>
<path fill-rule="evenodd" clip-rule="evenodd" d="M510.251 122.834V52.8522H537.006C542.337 52.8522 546.848 53.7862 550.538 55.6542C554.229 57.5222 557.031 60.1533 558.944 63.5477C560.858 66.942 561.815 70.8944 561.815 75.405C561.815 79.9383 560.846 83.8679 558.91 87.1939C556.974 90.4971 554.137 93.0371 550.401 94.814C550.039 94.9872 549.669 95.152 549.291 95.3084L564.343 122.834H549.445L535.853 97.4794H523.68V122.834H510.251ZM542.269 85.2462C540.332 86.0891 537.849 86.5105 534.82 86.5105H523.68V63.9577H534.717C537.77 63.9577 540.275 64.4133 542.235 65.3245C544.217 66.213 545.686 67.5115 546.643 69.22C547.599 70.9058 548.078 72.9674 548.078 75.405C548.078 77.8197 547.599 79.8586 546.643 81.5215C545.686 83.1617 544.228 84.4033 542.269 85.2462Z" stroke="black" stroke-width="1.26612"/>
</g>
</mask>
<g mask="url(#mask0_343_14)">
<path id="Vector 2" d="M90.6648 53.1617L106.491 66.4559M90.6648 122.798L107.124 108.871M334.393 85.4478L316.351 100.008M316.351 100.008V78.8006M316.351 100.008H336.925M369.211 52.5286L371.111 77.218L357.183 52.5286M416.691 124.698L401.497 98.7421L403.397 122.798M508.485 51.2625L526.843 66.4559M103.724 74.491V87.8536M103.724 100.56V87.8536M103.724 87.8536H23.6226M7.16309 87.8536H23.6226M124.007 122.479L125.526 108.568V66.9508L124.007 53.0394M23.6226 87.8536L76.2547 74.9538M23.6226 87.8536L76.2189 100.718M231.916 50.0755L241.491 59.6505M241.491 59.6505L251.146 49.9963M241.491 59.6505V116.309M241.491 116.309L232.549 125.251M241.491 116.309L250.275 125.093M266.497 87.8536H302.755L316.75 54.6325M415.741 87.8536H386.462H357.183M210.63 60.1253L198.602 72.1535L171.38 101.591L157.848 115.122M440.428 53.1616L456.255 66.4559M440.428 122.798L456.888 108.871M453.488 74.491V87.8536V100.56M473.77 122.479L475.29 108.568V66.9507L473.77 53.0394M523.727 77.4865V97.304M523.727 106.63V97.304M523.727 97.304L559.379 61.6519M544.337 113.224L527.467 81.9526M564.07 122.773H556.71H549.35L556.71 108.689M7.11499 124.847L27.1052 106.989M6.71521 50.6169L26.7054 68.4749" stroke="white" stroke-width="1.26612"/>
</g>
</g>
<path id="Subtract" fill-rule="evenodd" clip-rule="evenodd" d="M564.003 150H9V196.135H564.003V150ZM102.081 185.468V159.286H100.343V182.31H100.176L83.7234 159.286H81.9975V185.468H83.7617V162.47H83.9279L100.355 185.468H102.081ZM114.889 185.468V159.286H113.125V185.468H114.889ZM144.204 167.468H145.994C145.807 166.369 145.44 165.312 144.895 164.298C144.349 163.275 143.637 162.359 142.76 161.549C141.89 160.739 140.872 160.1 139.704 159.631C138.537 159.163 137.224 158.928 135.767 158.928C133.585 158.928 131.659 159.487 129.988 160.603C128.318 161.711 127.005 163.275 126.051 165.295C125.105 167.306 124.632 169.667 124.632 172.377C124.632 175.087 125.105 177.453 126.051 179.472C127.005 181.484 128.318 183.048 129.988 184.164C131.659 185.272 133.585 185.826 135.767 185.826C137.224 185.826 138.537 185.592 139.704 185.123C140.872 184.646 141.89 184.002 142.76 183.193C143.637 182.383 144.349 181.471 144.895 180.457C145.44 179.434 145.807 178.377 145.994 177.286H144.204C144.025 178.173 143.701 179.029 143.233 179.856C142.772 180.674 142.176 181.407 141.443 182.055C140.718 182.703 139.879 183.214 138.924 183.589C137.97 183.955 136.917 184.139 135.767 184.139C134.062 184.139 132.494 183.691 131.062 182.796C129.639 181.901 128.497 180.58 127.636 178.833C126.784 177.078 126.358 174.926 126.358 172.377C126.358 169.846 126.784 167.707 127.636 165.96C128.497 164.204 129.639 162.874 131.062 161.971C132.494 161.068 134.062 160.616 135.767 160.616C136.917 160.616 137.97 160.803 138.924 161.178C139.879 161.553 140.718 162.065 141.443 162.712C142.176 163.36 142.772 164.093 143.233 164.911C143.701 165.73 144.025 166.582 144.204 167.468ZM157.386 159.286H155.622V185.468H157.386V173.183H172.97V185.468H174.734V159.286H172.97V171.559H157.386V159.286ZM205.312 179.46C206.258 177.44 206.731 175.079 206.731 172.377C206.731 169.676 206.258 167.315 205.312 165.295C204.366 163.275 203.053 161.711 201.374 160.603C199.704 159.487 197.777 158.928 195.596 158.928C193.414 158.928 191.488 159.487 189.817 160.603C188.147 161.72 186.834 163.288 185.88 165.308C184.934 167.319 184.461 169.676 184.461 172.377C184.461 175.079 184.934 177.44 185.88 179.46C186.826 181.471 188.134 183.035 189.804 184.151C191.475 185.268 193.405 185.826 195.596 185.826C197.777 185.826 199.704 185.272 201.374 184.164C203.053 183.048 204.366 181.48 205.312 179.46ZM203.79 166.126C204.6 167.881 205.005 169.965 205.005 172.377C205.005 174.789 204.6 176.877 203.79 178.641C202.989 180.397 201.877 181.752 200.454 182.707C199.039 183.661 197.42 184.139 195.596 184.139C193.763 184.139 192.14 183.661 190.725 182.707C189.31 181.744 188.198 180.384 187.388 178.629C186.587 176.864 186.187 174.781 186.187 172.377C186.187 169.957 186.591 167.869 187.401 166.113C188.219 164.349 189.336 162.994 190.75 162.048C192.165 161.093 193.78 160.616 195.596 160.616C197.42 160.616 199.039 161.093 200.454 162.048C201.868 163.002 202.981 164.362 203.79 166.126ZM218.234 159.286H216.47V185.468H230.955V183.845H218.234V159.286ZM239.326 185.468H241.18L244.13 177.197H255.424L258.375 185.468H260.241L250.781 159.286H248.786L239.326 185.468ZM254.845 175.573L249.848 161.562H249.707L244.709 175.573H254.845ZM280.793 161.984C281.969 162.955 282.629 164.238 282.774 165.832H284.5C284.432 164.494 284.044 163.305 283.337 162.265C282.629 161.217 281.671 160.394 280.46 159.798C279.259 159.201 277.869 158.903 276.293 158.903C274.725 158.903 273.318 159.201 272.074 159.798C270.83 160.394 269.845 161.217 269.121 162.265C268.405 163.313 268.047 164.515 268.047 165.87C268.047 167.489 268.588 168.836 269.671 169.91C270.761 170.984 272.334 171.836 274.388 172.467L277.456 173.387C278.666 173.745 279.693 174.158 280.537 174.627C281.381 175.087 282.024 175.641 282.467 176.289C282.911 176.928 283.132 177.704 283.132 178.616C283.132 179.741 282.83 180.725 282.225 181.569C281.628 182.413 280.797 183.073 279.732 183.551C278.666 184.019 277.443 184.254 276.063 184.254C274.784 184.254 273.642 184.049 272.636 183.64C271.639 183.222 270.838 182.626 270.233 181.85C269.628 181.075 269.283 180.154 269.198 179.089H267.382C267.476 180.427 267.885 181.607 268.609 182.63C269.342 183.653 270.34 184.454 271.601 185.033C272.871 185.613 274.358 185.903 276.063 185.903C277.861 185.903 279.416 185.587 280.729 184.957C282.05 184.318 283.068 183.453 283.784 182.362C284.5 181.262 284.858 180.018 284.858 178.629C284.858 177.657 284.675 176.805 284.308 176.072C283.95 175.33 283.452 174.691 282.813 174.154C282.182 173.609 281.449 173.144 280.614 172.761C279.787 172.377 278.896 172.045 277.942 171.764L275.104 170.92C274.345 170.698 273.642 170.434 272.994 170.127C272.347 169.82 271.78 169.462 271.294 169.053C270.817 168.644 270.442 168.171 270.169 167.634C269.905 167.097 269.773 166.492 269.773 165.819C269.773 164.788 270.05 163.876 270.604 163.083C271.158 162.291 271.921 161.668 272.892 161.217C273.872 160.756 274.993 160.526 276.254 160.526C278.104 160.526 279.617 161.012 280.793 161.984ZM316.933 159.286H308.355V185.468H317.572C319.293 185.468 320.734 185.178 321.893 184.599C323.052 184.019 323.921 183.218 324.501 182.195C325.08 181.173 325.37 179.997 325.37 178.667C325.37 177.38 325.127 176.259 324.641 175.305C324.164 174.35 323.534 173.6 322.749 173.055C321.974 172.501 321.143 172.19 320.257 172.122V171.955C321.058 171.742 321.765 171.376 322.379 170.856C323.001 170.336 323.482 169.676 323.823 168.874C324.173 168.065 324.347 167.127 324.347 166.062C324.347 164.724 324.062 163.548 323.491 162.533C322.928 161.511 322.097 160.714 320.998 160.143C319.899 159.572 318.543 159.286 316.933 159.286ZM317.572 183.845H310.119V172.978H317.636C318.829 172.978 319.877 173.23 320.781 173.732C321.684 174.227 322.391 174.904 322.903 175.765C323.414 176.617 323.67 177.585 323.67 178.667C323.67 180.184 323.146 181.428 322.097 182.4C321.058 183.363 319.549 183.845 317.572 183.845ZM317.406 171.367H310.119V160.91H316.933C318.774 160.91 320.184 161.374 321.164 162.303C322.153 163.232 322.647 164.485 322.647 166.062C322.647 167.051 322.434 167.95 322.008 168.759C321.59 169.56 320.994 170.195 320.218 170.664C319.443 171.133 318.505 171.367 317.406 171.367ZM354.589 159.286H352.825V176.519C352.825 178.002 352.489 179.323 351.815 180.482C351.151 181.641 350.217 182.553 349.016 183.218C347.822 183.883 346.442 184.215 344.874 184.215C343.305 184.215 341.925 183.883 340.732 183.218C339.538 182.553 338.605 181.641 337.932 180.482C337.259 179.323 336.922 178.002 336.922 176.519V159.286H335.158V176.622C335.149 178.394 335.562 179.98 336.398 181.377C337.233 182.775 338.379 183.879 339.837 184.688C341.303 185.498 342.982 185.903 344.874 185.903C346.774 185.903 348.453 185.502 349.911 184.701C351.376 183.891 352.523 182.788 353.349 181.39C354.176 179.992 354.589 178.403 354.589 176.622V159.286ZM373.761 159.286H365.617V185.468H367.381V174.602H373.786C374.219 174.602 374.637 174.581 375.038 174.538L380.945 185.468H382.978L376.838 174.175C377.292 174.033 377.72 173.856 378.12 173.643C379.322 172.995 380.242 172.1 380.881 170.958C381.52 169.816 381.84 168.491 381.84 166.982C381.84 165.465 381.52 164.131 380.881 162.981C380.242 161.822 379.317 160.918 378.107 160.271C376.905 159.614 375.457 159.286 373.761 159.286ZM367.381 172.953H373.735C375.082 172.953 376.228 172.71 377.174 172.224C378.12 171.73 378.84 171.035 379.334 170.14C379.837 169.245 380.089 168.193 380.089 166.982C380.089 165.755 379.837 164.69 379.334 163.786C378.84 162.874 378.12 162.167 377.174 161.664C376.228 161.161 375.077 160.91 373.722 160.91H367.381V172.953ZM409.001 164.924C409.47 165.742 409.807 166.59 410.011 167.468H411.814C411.626 166.394 411.26 165.35 410.714 164.336C410.169 163.322 409.457 162.41 408.579 161.6C407.71 160.782 406.683 160.134 405.498 159.657C404.314 159.171 402.984 158.928 401.51 158.928C399.865 158.928 398.365 159.244 397.01 159.874C395.655 160.505 394.483 161.413 393.494 162.597C392.514 163.774 391.755 165.188 391.218 166.842C390.682 168.495 390.413 170.34 390.413 172.377C390.413 175.079 390.878 177.44 391.807 179.46C392.744 181.48 394.052 183.048 395.731 184.164C397.419 185.272 399.392 185.826 401.65 185.826C403.662 185.826 405.443 185.379 406.994 184.484C408.554 183.589 409.777 182.315 410.663 180.661C411.558 178.999 412.005 177.022 412.005 174.73V173.106H402.098V174.73H410.28C410.264 176.627 409.906 178.267 409.206 179.651C408.473 181.092 407.454 182.2 406.15 182.975C404.846 183.751 403.346 184.139 401.65 184.139C399.767 184.139 398.109 183.661 396.677 182.707C395.254 181.744 394.142 180.384 393.341 178.629C392.539 176.864 392.139 174.781 392.139 172.377C392.139 169.957 392.539 167.869 393.341 166.113C394.142 164.349 395.245 162.994 396.652 162.048C398.066 161.093 399.686 160.616 401.51 160.616C402.694 160.616 403.764 160.803 404.718 161.178C405.673 161.553 406.508 162.069 407.224 162.725C407.949 163.373 408.541 164.106 409.001 164.924ZM423.73 159.286H421.965V185.468H423.73V173.183H439.313V185.468H441.078V159.286H439.313V171.559H423.73V159.286ZM466.81 159.286H452.108V185.468H467.104V183.845H453.873V173.183H466.018V171.559H453.873V160.91H466.81V159.286ZM485.086 159.286H476.943V185.468H478.707V174.602H485.112C485.545 174.602 485.963 174.581 486.364 174.538L492.271 185.468H494.304L488.164 174.175C488.618 174.033 489.045 173.856 489.446 173.643C490.647 172.995 491.568 172.1 492.207 170.958C492.846 169.816 493.166 168.491 493.166 166.982C493.166 165.465 492.846 164.131 492.207 162.981C491.568 161.822 490.643 160.918 489.433 160.271C488.231 159.614 486.782 159.286 485.086 159.286ZM478.707 172.953H485.061C486.407 172.953 487.554 172.71 488.5 172.224C489.446 171.73 490.166 171.035 490.66 170.14C491.163 169.245 491.414 168.193 491.414 166.982C491.414 165.755 491.163 164.69 490.66 163.786C490.166 162.874 489.446 162.167 488.5 161.664C487.554 161.161 486.403 160.91 485.048 160.91H478.707V172.953Z" fill="white"/>
</g>
</svg>
